<svg version="1.1" id="Layer_1" xmlns="http://www.w3.org/2000/svg" xmlns:xlink="http://www.w3.org/1999/xlink" x="0px" y="0px"
	 width="100%" viewBox="0 0 3274 940" enable-background="new 0 0 3274 940" xml:space="preserve">
<path fill="#000000" opacity="1.000000" stroke="none" 
	d="
M2133.000000,941.000000 
	C1422.000000,941.000000 711.500000,941.000000 1.000000,941.000000 
	C1.000000,627.666687 1.000000,314.333344 1.000000,1.000000 
	C1092.333374,1.000000 2183.666748,1.000000 3275.000000,1.000000 
	C3275.000000,314.333344 3275.000000,627.666687 3275.000000,941.000000 
	C2894.500000,941.000000 2514.000000,941.000000 2133.000000,941.000000 
M2577.070557,572.027771 
	C2552.822998,572.027771 2528.575439,572.027771 2504.337891,572.027771 
	C2504.337891,659.980103 2504.337891,747.320435 2504.337891,834.644287 
	C2529.372314,834.644287 2554.076660,834.644287 2578.933105,834.644287 
	C2578.933105,832.469360 2578.933350,830.648621 2578.933350,828.827881 
	C2578.933350,745.386780 2578.934326,661.945740 2578.927246,578.504639 
	C2578.927246,576.675171 2578.837158,574.845642 2578.861084,572.509827 
	C2578.573486,572.395386 2578.285889,572.280884 2577.070557,572.027771 
M388.701752,687.692688 
	C388.829376,687.818970 388.956970,687.945190 389.014160,688.912415 
	C388.333282,694.749451 387.843811,700.616516 386.933502,706.417542 
	C384.726074,720.484619 386.154663,734.384888 388.639526,748.226624 
	C391.571686,764.560181 397.833618,779.573181 406.286224,793.862549 
	C416.267792,810.736816 428.824036,825.334167 444.496918,836.873230 
	C452.929718,843.081848 462.647247,847.632080 472.041748,852.427856 
	C486.475952,859.796204 502.120941,863.500793 518.106262,864.862427 
	C546.460144,867.277710 573.573242,861.992920 599.541382,850.217773 
	C610.611816,845.197998 619.993408,837.788513 629.057739,830.160217 
	C638.576660,822.149475 646.911499,812.720459 655.657043,803.806519 
	C660.537537,798.832092 665.034485,793.474243 670.016174,788.608582 
	C673.867737,784.846863 678.389954,781.776001 682.284851,778.053528 
	C689.668945,770.996399 696.870911,763.745300 704.037903,756.465820 
	C707.151855,753.302917 709.829407,749.704712 712.994995,746.599609 
	C717.709290,741.975525 722.817749,737.750305 727.483459,733.080627 
	C729.769043,730.793152 731.117981,727.558289 733.437683,725.318604 
	C742.251160,716.808960 751.930481,709.106873 760.079712,700.020874 
	C770.451721,688.456543 778.723572,675.325073 785.545471,661.199280 
	C793.198181,645.353088 796.759583,628.568909 797.744690,611.363586 
	C798.410217,599.740723 797.286194,587.901855 795.832336,576.301270 
	C794.188293,563.183777 790.270386,550.471985 784.148193,538.706604 
	C775.830750,522.722473 765.524719,508.198364 752.330627,495.642548 
	C737.698853,481.718658 721.081848,471.233704 701.980408,465.126587 
	C691.484375,461.770782 680.519653,459.192444 669.582214,458.091278 
	C657.652527,456.890259 645.498230,457.483154 633.465027,457.924652 
	C627.148438,458.156403 620.881287,459.736847 613.470703,460.881409 
	C620.177002,455.321411 626.345032,450.801910 631.819092,445.557922 
	C648.264404,429.803650 664.479065,413.807312 680.704651,397.825165 
	C690.675659,388.003845 700.565491,378.098114 710.375488,368.116028 
	C720.608704,357.703247 730.067627,346.429199 741.009216,336.836853 
	C756.540894,323.220367 770.235779,308.227875 780.181702,290.191864 
	C796.322876,260.921021 801.033936,229.651138 796.177979,196.520340 
	C792.059021,168.417923 779.909607,144.246002 761.553955,123.335800 
	C746.685730,106.398453 728.680969,93.528168 707.121948,85.266182 
	C684.274048,76.510246 660.964783,73.808067 636.934387,75.129929 
	C630.994995,75.456635 625.042664,76.903107 619.263428,78.456581 
	C611.130493,80.642700 603.010315,83.034157 595.151489,86.036240 
	C587.790283,88.848228 580.293152,91.818039 573.712036,96.049866 
	C560.691956,104.422096 549.052795,114.456581 538.828247,126.335640 
	C530.737305,135.735840 520.952271,143.661697 512.114685,152.438766 
	C491.304535,173.106522 470.600983,193.881714 449.874115,214.633270 
	C437.480896,227.041229 425.125244,239.486664 413.131714,251.534500 
	C414.008087,245.575043 415.558289,238.830185 415.897705,232.024918 
	C416.984863,210.227615 414.975159,188.816544 407.005096,168.205444 
	C400.233734,150.694412 390.442017,135.045090 377.738464,121.393074 
	C362.580536,105.103386 345.126587,92.038116 323.628082,84.778915 
	C310.763824,80.435165 297.900177,76.264740 284.360016,75.087944 
	C258.574219,72.846870 233.716309,77.327766 209.725647,86.742378 
	C193.195984,93.229088 179.284744,103.764565 166.654007,115.990273 
	C154.528366,127.727089 142.776871,139.849426 130.781647,151.722229 
	C107.126778,175.135666 83.328201,198.404709 59.780399,221.925049 
	C52.025143,229.671249 44.953049,238.096542 37.401119,246.052353 
	C27.929865,256.030121 21.692736,268.131622 16.242723,280.398865 
	C11.858749,290.266632 9.390874,301.068787 6.816010,311.637390 
	C3.108785,326.853729 3.021629,342.414062 5.175174,357.826324 
	C7.642755,375.486053 13.146270,392.196472 21.842016,407.968262 
	C28.601194,420.227631 36.854591,431.324524 46.252514,441.432800 
	C58.489651,454.594879 73.558525,464.021820 90.142647,471.063324 
	C108.552353,478.880035 127.616661,484.120575 147.651871,483.814117 
	C161.348923,483.604584 175.018906,481.626007 187.153091,480.572693 
	C183.529846,483.379639 177.975952,486.922363 173.333832,491.408569 
	C152.051712,511.975952 130.996460,532.778687 109.933968,553.572083 
	C106.421562,557.039612 103.451462,561.057861 99.925964,564.510437 
	C91.584534,572.679321 82.817604,580.424500 74.665031,588.772949 
	C61.963310,601.779846 49.657806,615.172852 37.129055,628.349609 
	C26.441250,639.590210 20.081963,653.424683 14.029875,667.351196 
	C8.380623,680.350708 6.146304,694.140747 4.745643,708.283691 
	C3.260829,723.276428 4.944932,737.770264 7.704940,752.333313 
	C10.781663,768.567444 17.502815,783.410828 26.279139,797.159302 
	C32.411232,806.765442 39.092911,816.427002 47.285812,824.216003 
	C59.513515,835.840942 73.065155,845.624939 89.161186,852.438049 
	C115.246384,863.479431 141.758179,866.777344 169.635132,864.159241 
	C186.319138,862.592407 201.714310,856.915833 216.673935,850.409607 
	C230.477524,844.406250 242.245743,834.641357 253.168564,824.222107 
	C262.860504,814.977051 272.212372,805.373291 281.633545,795.847900 
	C284.638702,792.809448 287.191284,789.309143 290.295715,786.386353 
	C294.817871,782.128967 299.767090,778.326355 304.309113,774.088562 
	C306.951050,771.623596 308.997345,768.527344 311.589386,765.999939 
	C315.602478,762.086914 320.038605,758.600037 323.966888,754.609131 
	C334.334015,744.076660 344.103546,732.918884 354.897736,722.853821 
	C366.845978,711.712646 378.753876,700.642944 388.701752,687.692688 
M1378.089355,661.450928 
	C1379.726562,665.317810 1382.166138,669.049377 1382.845459,673.077881 
	C1384.638062,683.709534 1386.699951,694.458740 1386.817017,705.181213 
	C1387.267944,746.507019 1386.999878,787.840698 1386.999878,829.171448 
	C1386.999878,830.957642 1386.999878,832.743774 1386.999878,834.698364 
	C1411.877930,834.698364 1436.263184,834.698364 1460.839722,834.698364 
	C1460.902832,833.605652 1460.995239,832.798157 1460.989502,831.991333 
	C1460.665283,786.226196 1460.261719,740.461487 1460.043457,694.695862 
	C1459.976318,680.617798 1457.474609,667.008911 1453.243042,653.672302 
	C1447.096680,634.300415 1437.304688,617.127563 1423.071655,602.415955 
	C1414.106323,593.149048 1404.421509,584.983704 1392.995361,579.025330 
	C1367.138794,565.541809 1339.642334,561.083618 1310.862183,565.060059 
	C1292.706055,567.568726 1275.649170,573.787903 1260.584595,584.194946 
	C1251.155640,590.708862 1242.850464,598.849487 1234.130615,606.184875 
	C1229.207764,601.712402 1223.845947,596.766479 1218.403687,591.910889 
	C1201.819702,577.114685 1181.822998,569.043274 1160.451904,565.318970 
	C1143.409180,562.348877 1125.999146,562.911316 1108.823486,566.920776 
	C1084.441528,572.612366 1063.128418,583.666321 1045.796509,601.805603 
	C1035.112427,612.987549 1027.211670,625.958435 1020.734924,640.139221 
	C1012.388855,658.412598 1008.491028,677.552612 1008.201660,697.202087 
	C1007.556213,741.023132 1008.000061,784.860291 1008.000122,828.690857 
	C1008.000122,830.642029 1008.000122,832.593201 1008.000122,834.685425 
	C1032.892212,834.685425 1057.276489,834.685425 1082.000366,834.685425 
	C1082.000366,832.574341 1082.000244,830.766541 1082.000244,828.958679 
	C1082.000122,786.961304 1082.201172,744.962341 1081.875854,702.967529 
	C1081.780029,690.600952 1083.821533,678.788574 1088.120728,667.398987 
	C1091.412598,658.678467 1095.393677,649.857056 1102.814697,643.931702 
	C1116.172241,633.266357 1131.418579,629.401367 1148.723633,631.800232 
	C1170.062988,634.758362 1182.928589,647.136841 1191.070312,665.981567 
	C1196.655762,678.909241 1197.688110,692.706726 1197.838501,706.376404 
	C1198.287842,747.202209 1198.000000,788.036194 1198.000000,828.866943 
	C1198.000000,830.801392 1198.000000,832.735840 1198.000000,834.622437 
	C1222.684692,834.622437 1246.736328,834.622437 1271.000000,834.622437 
	C1271.000000,832.426086 1271.000000,830.603516 1271.000000,828.780945 
	C1271.000000,788.950134 1270.880005,749.118652 1271.091309,709.288940 
	C1271.139282,700.258179 1271.742676,691.139832 1273.149048,682.228821 
	C1275.073486,670.035095 1279.497314,658.394104 1287.655273,649.075134 
	C1302.516968,632.098511 1321.807007,628.031921 1343.244873,632.673462 
	C1359.411743,636.173706 1370.612061,646.115112 1378.089355,661.450928 
M2571.000000,341.500000 
	C2571.000000,311.503784 2570.919922,281.507294 2571.032471,251.511505 
	C2571.092285,235.565094 2572.210205,219.714981 2579.094482,204.959503 
	C2583.576904,195.352554 2589.723145,187.011444 2598.732178,181.036682 
	C2609.347900,173.996262 2621.144531,172.482224 2633.545166,172.947647 
	C2650.348877,173.578339 2663.381348,181.001022 2673.039551,194.427109 
	C2682.809570,208.009155 2686.852783,223.582306 2686.930420,240.067017 
	C2687.135986,283.727661 2686.999756,327.389893 2686.999512,371.051483 
	C2686.999512,372.968170 2686.999512,374.884888 2686.999512,376.734406 
	C2712.025635,376.734406 2736.291748,376.734406 2761.000000,376.734406 
	C2761.000000,374.685364 2761.000000,372.893311 2761.000000,371.101288 
	C2761.000000,328.772858 2761.091553,286.444122 2760.943115,244.116226 
	C2760.899414,231.681763 2762.367188,219.514084 2767.160156,208.084686 
	C2772.423584,195.532074 2780.179932,184.911163 2792.903320,178.521713 
	C2806.253662,171.817566 2820.068604,171.599243 2834.173096,174.657928 
	C2845.296143,177.070099 2854.186768,183.175690 2861.047119,192.266769 
	C2873.161133,208.319275 2876.572754,227.154739 2876.829834,246.413071 
	C2877.383789,287.900848 2877.000000,329.401154 2877.000000,370.896332 
	C2877.000000,372.827606 2877.000000,374.758850 2877.000000,376.618103 
	C2901.707275,376.618103 2925.759033,376.618103 2950.000000,376.618103 
	C2950.000000,374.248657 2950.000000,372.257935 2950.000000,370.267212 
	C2950.000000,326.772247 2950.104248,283.276855 2949.907227,239.782776 
	C2949.870117,231.582550 2949.312744,223.262238 2947.824463,215.213806 
	C2943.192627,190.160019 2933.247314,167.411789 2916.435303,148.001236 
	C2901.931885,131.256195 2884.028809,119.049461 2863.117676,112.250198 
	C2840.789062,104.990204 2817.673828,103.729179 2794.412842,107.978912 
	C2770.552734,112.338158 2750.217041,123.514069 2732.613281,139.931290 
	C2729.527344,142.808914 2726.748047,146.014984 2724.428711,148.440491 
	C2717.162842,142.035324 2710.621582,135.505890 2703.319092,129.982254 
	C2685.551514,116.542427 2665.454346,107.916214 2643.236572,106.254715 
	C2622.022461,104.668266 2600.918701,106.098076 2580.552490,113.876587 
	C2559.929199,121.753448 2542.411865,134.016266 2528.813965,151.016998 
	C2507.996094,177.043823 2498.058594,207.304138 2498.014160,240.684830 
	C2497.956299,284.179718 2498.000000,327.674713 2498.000000,371.169678 
	C2498.000000,372.957153 2498.000000,374.744659 2498.000000,376.696960 
	C2522.522949,376.696960 2546.574219,376.696960 2571.000000,376.696960 
	C2571.000000,365.100098 2571.000000,353.800049 2571.000000,341.500000 
M1856.986694,776.481262 
	C1863.183594,784.013672 1869.577393,791.394287 1875.531250,799.114136 
	C1884.378174,810.585510 1896.595337,817.987610 1908.765137,824.636475 
	C1935.567627,839.279724 1964.583374,844.954224 1995.144897,840.993164 
	C2012.287109,838.771423 2028.009033,833.004944 2041.573486,821.970642 
	C2044.426758,819.649597 2047.468628,817.560425 2051.137695,814.833862 
	C2051.137695,851.063293 2051.137695,886.314697 2051.137695,921.671753 
	C2075.918457,921.671753 2100.303711,921.671753 2125.000000,921.671753 
	C2125.000000,919.370239 2125.000000,917.394348 2125.000000,915.418518 
	C2125.000000,845.419373 2125.070801,775.420044 2124.909668,705.421265 
	C2124.889648,696.721558 2124.315674,687.907288 2122.832275,679.348083 
	C2117.983643,651.367676 2105.097900,627.242798 2085.323730,607.062439 
	C2078.517822,600.116638 2070.151367,594.668701 2062.336426,588.749756 
	C2042.462402,573.697937 2019.232788,566.978577 1995.095703,564.354919 
	C1979.783813,562.690491 1964.142944,563.410583 1948.731567,566.887634 
	C1914.478149,574.616028 1886.262817,591.794556 1864.377441,619.186462 
	C1848.300415,639.308594 1838.554688,662.414673 1836.270264,687.951294 
	C1834.582886,706.813232 1834.963379,726.033203 1841.786987,744.137878 
	C1845.895386,755.038269 1851.525391,765.365173 1856.986694,776.481262 
M1687.397949,569.011169 
	C1666.645020,562.695129 1645.251831,561.847900 1624.257324,565.391052 
	C1602.539185,569.056335 1581.869507,576.651794 1563.493652,589.783203 
	C1550.493774,599.072876 1538.503662,609.480652 1529.560669,622.459534 
	C1510.608032,649.965637 1500.686768,680.196167 1503.738525,714.357300 
	C1505.312500,731.974731 1510.111084,748.367615 1517.710571,763.897888 
	C1526.728394,782.326599 1539.511108,797.910156 1555.919800,810.679382 
	C1570.280518,821.854797 1585.770264,830.555603 1603.066650,835.847595 
	C1619.348022,840.829102 1636.114014,842.639221 1653.179565,842.065002 
	C1664.808105,841.673767 1675.770752,838.886047 1686.321289,834.248230 
	C1701.280884,827.672180 1713.474243,817.562744 1724.073120,803.334290 
	C1724.073120,814.707214 1724.073120,824.719727 1724.073120,834.606506 
	C1747.395508,834.606506 1770.112183,834.606506 1792.999756,834.606506 
	C1792.999756,832.221130 1792.999756,830.227905 1792.999756,828.234680 
	C1792.999756,787.076965 1792.974487,745.919312 1793.012817,704.761597 
	C1793.026855,689.718628 1790.677734,675.153076 1786.032959,660.783386 
	C1779.028564,639.113831 1766.937378,620.666443 1751.000122,604.846436 
	C1743.754272,597.653870 1735.072754,591.785400 1726.571655,586.009094 
	C1714.883179,578.066895 1701.752930,573.052429 1687.397949,569.011169 
M3245.000000,725.500000 
	C3244.669189,713.237366 3244.404785,700.972473 3243.990479,688.712646 
	C3243.450928,672.742126 3238.011475,658.041748 3231.301270,643.884583 
	C3219.998779,620.037903 3202.744873,601.173645 3180.565430,587.019165 
	C3166.192871,577.846924 3150.502930,571.890808 3133.842285,567.629150 
	C3114.655762,562.721252 3095.380127,562.450134 3076.424805,565.474304 
	C3054.847168,568.916931 3034.314697,576.547546 3016.063232,589.382202 
	C3001.954590,599.303650 2989.776855,611.071838 2979.993164,625.223022 
	C2967.770020,642.903137 2960.150879,662.374023 2956.814453,683.723267 
	C2954.234375,700.234070 2954.755371,716.590637 2958.430176,732.623596 
	C2964.843750,760.603760 2979.047607,784.659668 2999.982666,804.106140 
	C3009.220947,812.687378 3020.147949,819.947083 3031.351074,825.816101 
	C3057.499023,839.514221 3085.616699,845.044983 3115.068115,840.911377 
	C3137.436523,837.772034 3156.258789,827.639404 3170.638428,809.876282 
	C3172.027588,808.160034 3173.395508,806.426270 3174.773193,804.700623 
	C3175.230469,805.057678 3175.687500,805.414734 3176.144531,805.771790 
	C3176.144531,815.366394 3176.144531,824.961060 3176.144531,834.688721 
	C3199.232422,834.688721 3221.946533,834.688721 3245.000000,834.688721 
	C3245.000000,798.419617 3245.000000,762.459778 3245.000000,725.500000 
M2078.520508,135.979401 
	C2076.551514,137.907791 2074.762207,140.072876 2072.584229,141.725830 
	C2059.209717,151.876526 2049.296143,165.133102 2041.415161,179.518417 
	C2026.387329,206.948608 2022.018799,236.390320 2026.813599,267.498413 
	C2030.781860,293.243469 2041.828735,315.460663 2058.542969,334.764221 
	C2072.773682,351.199402 2090.183594,363.640289 2110.458496,372.343567 
	C2134.669189,382.736481 2159.568115,386.149323 2185.488037,382.944550 
	C2199.704590,381.186798 2212.508789,375.502441 2223.698730,366.669128 
	C2231.199463,360.748138 2238.083984,354.045990 2245.167969,347.761047 
	C2245.167969,356.909973 2245.167969,366.796692 2245.167969,376.614380 
	C2268.382080,376.614380 2291.100342,376.614380 2314.000000,376.614380 
	C2314.000000,374.406586 2314.000000,372.581390 2314.000000,370.756195 
	C2314.000000,332.091187 2313.978271,293.426178 2314.012451,254.761215 
	C2314.024170,241.726913 2313.845215,228.786240 2311.117432,215.886368 
	C2306.263916,192.933655 2295.796387,172.814697 2280.602783,155.344589 
	C2267.391846,140.154663 2251.440918,128.434448 2232.950195,119.715012 
	C2215.597900,111.532387 2197.679199,106.965706 2178.768311,106.131935 
	C2169.202637,105.710190 2159.548096,106.313255 2149.984131,107.081383 
	C2135.899170,108.212585 2122.226074,111.633339 2109.599365,117.962212 
	C2099.118652,123.215469 2089.201416,129.592133 2078.520508,135.979401 
M1252.909546,212.331757 
	C1251.607666,219.044312 1249.458496,225.720474 1249.168213,232.476501 
	C1248.404541,250.248947 1249.090576,267.851257 1254.919678,285.103516 
	C1263.509766,310.526459 1277.319458,332.019806 1297.816772,349.533844 
	C1311.826660,361.504822 1327.605103,369.945831 1344.661255,376.208679 
	C1365.545288,383.877014 1387.158081,385.831726 1409.190063,382.990692 
	C1427.270264,380.659210 1442.509766,372.181702 1455.965942,360.380646 
	C1460.930420,356.026917 1465.058105,350.718994 1470.339355,345.012238 
	C1470.339355,356.371490 1470.339355,366.615845 1470.339355,376.705261 
	C1493.081299,376.705261 1515.349243,376.705261 1538.000000,376.705261 
	C1538.000000,374.617493 1538.000000,372.817780 1538.000000,371.018066 
	C1538.000000,329.851807 1537.776855,288.683716 1538.106689,247.520111 
	C1538.243896,230.387573 1536.104492,213.866425 1529.984375,197.806885 
	C1524.070068,182.286880 1516.175659,167.920578 1504.998657,155.678925 
	C1493.562866,143.153824 1480.889038,132.158966 1465.705444,123.920837 
	C1447.598145,114.096313 1428.511719,107.647644 1408.191284,106.302505 
	C1394.434448,105.391853 1380.387451,106.508049 1366.652222,108.196976 
	C1347.490601,110.553139 1330.031982,118.236488 1313.804932,128.628021 
	C1298.986694,138.117340 1286.442383,149.862961 1275.776733,164.029099 
	C1264.914062,178.456787 1257.952393,194.413345 1252.909546,212.331757 
M2839.000000,734.500000 
	C2839.000000,767.913452 2839.000000,801.326965 2839.000000,834.589478 
	C2864.089111,834.589478 2888.470459,834.589478 2913.000000,834.589478 
	C2913.000000,808.189941 2913.212646,782.197449 2912.939697,756.210083 
	C2912.671143,730.678589 2914.449463,705.091492 2911.020752,679.630371 
	C2909.179932,665.958618 2905.491455,652.765625 2899.556152,640.401306 
	C2889.910156,620.308044 2876.476562,603.168335 2858.367188,589.765930 
	C2838.275635,574.896729 2815.548828,566.860474 2791.064209,564.263123 
	C2779.792480,563.067505 2768.048584,563.538574 2756.838623,565.295715 
	C2744.573730,567.218262 2732.267334,570.467896 2720.746826,575.063721 
	C2710.750000,579.051880 2701.561279,585.328491 2692.498779,591.324158 
	C2682.695312,597.809937 2674.968506,606.568176 2667.918213,616.010803 
	C2659.043945,627.896301 2651.724854,640.625671 2647.795898,654.863586 
	C2644.427979,667.069702 2640.578369,679.645203 2640.338867,692.122559 
	C2639.459961,737.926575 2639.996338,783.757812 2640.000000,829.578796 
	C2640.000244,831.325439 2640.000000,833.072083 2640.000000,834.732422 
	C2665.044922,834.732422 2689.308594,834.732422 2714.000488,834.732422 
	C2714.000488,832.678162 2714.000488,830.884888 2714.000488,829.091675 
	C2714.000488,788.769043 2713.885498,748.445862 2714.091309,708.124329 
	C2714.135742,699.432373 2714.529053,690.589478 2716.177979,682.090942 
	C2719.430664,665.326172 2727.502686,650.868896 2741.857666,641.197693 
	C2754.864746,632.434814 2769.496582,629.341858 2785.355957,631.891052 
	C2799.560303,634.174133 2811.802734,639.538025 2821.214600,650.693726 
	C2832.874268,664.513550 2838.322021,680.688721 2838.925781,698.511780 
	C2839.320312,710.161987 2839.000000,721.836426 2839.000000,734.500000 
M2350.966064,836.533508 
	C2361.544922,831.586548 2372.543701,827.366211 2382.615967,821.543091 
	C2404.389648,808.955078 2419.088867,789.580139 2429.603271,767.303162 
	C2439.659424,745.997498 2443.049072,723.000549 2443.015869,699.485352 
	C2442.958984,658.999512 2443.000000,618.513489 2443.000000,578.027588 
	C2443.000000,576.103516 2443.000000,574.179504 2443.000000,572.404541 
	C2417.914307,572.404541 2393.533691,572.404541 2369.000000,572.404541 
	C2369.000000,600.462219 2369.125244,628.116333 2368.958740,655.768738 
	C2368.833740,676.527588 2368.629150,697.294739 2367.884521,718.037598 
	C2367.472900,729.509827 2363.074463,739.992126 2356.826904,749.556213 
	C2353.879883,754.067383 2350.973389,759.001343 2346.876953,762.279846 
	C2339.113037,768.493469 2330.302246,772.887085 2320.039795,774.196716 
	C2298.538086,776.940491 2279.590332,773.154114 2265.492188,755.026001 
	C2255.630615,742.345642 2250.256348,727.872986 2250.126953,711.997437 
	C2249.762939,667.349243 2250.000244,622.696167 2250.000732,578.044983 
	C2250.000977,576.119141 2250.000977,574.193298 2250.000977,572.397705 
	C2224.928955,572.397705 2200.548340,572.397705 2176.000000,572.397705 
	C2176.000000,574.788757 2176.000000,576.782532 2176.000000,578.776245 
	C2176.000000,622.594360 2175.966309,666.412537 2176.045410,710.230530 
	C2176.054688,715.328003 2176.244873,720.501465 2177.113770,725.507263 
	C2180.246094,743.542908 2185.166260,760.873962 2194.325684,777.089233 
	C2205.362793,796.628967 2220.312012,812.069885 2239.022949,823.952759 
	C2256.149658,834.829468 2275.414062,840.162842 2295.357910,841.763000 
	C2313.764404,843.239929 2332.272461,842.196533 2350.966064,836.533508 
M1138.957153,305.190094 
	C1137.549927,307.381287 1136.346191,309.740753 1134.698242,311.732880 
	C1129.202637,318.376434 1121.269775,320.392822 1113.389282,321.652496 
	C1104.172729,323.125824 1094.828613,322.162048 1086.532593,317.665131 
	C1077.596802,312.821320 1073.555298,304.626251 1073.862061,294.289673 
	C1049.152588,294.289673 1024.758057,294.289673 999.640198,294.289673 
	C1000.118286,298.523499 1000.738708,302.387817 1000.958008,306.274750 
	C1001.550598,316.780396 1005.200012,326.393188 1010.091064,335.432953 
	C1020.976746,355.552094 1038.730835,367.886414 1059.472046,375.768890 
	C1069.243530,379.482422 1079.855469,381.979706 1090.260132,382.784851 
	C1103.817017,383.833954 1117.605469,383.366211 1131.184814,382.235535 
	C1144.911621,381.092529 1157.490967,375.478912 1169.613281,369.018280 
	C1182.804688,361.987976 1193.581543,352.160522 1201.531006,339.681458 
	C1208.675049,328.466705 1212.635864,316.059265 1214.305664,302.566284 
	C1216.083374,288.200867 1213.286743,275.023224 1206.754272,262.857605 
	C1195.275757,241.481033 1175.604370,230.313660 1153.033203,224.179153 
	C1140.971069,220.900848 1128.376709,219.636292 1116.143677,216.917419 
	C1103.110352,214.020660 1090.713379,209.582825 1081.056396,199.579941 
	C1074.782227,193.081055 1075.963745,180.353836 1083.256836,174.888489 
	C1092.498901,167.962448 1103.101318,167.039490 1113.810181,168.224991 
	C1123.526489,169.300598 1132.299438,173.092361 1135.722656,183.558975 
	C1137.014038,187.507523 1137.519653,191.713089 1138.340088,195.596771 
	C1162.739990,195.596771 1186.795532,195.596771 1212.360962,195.596771 
	C1210.560669,185.813339 1209.565552,176.496567 1207.054565,167.608017 
	C1202.413696,151.179962 1192.925415,137.523087 1178.956787,127.803032 
	C1170.080566,121.626419 1160.394043,115.967751 1150.254639,112.390144 
	C1130.463867,105.407173 1109.757080,104.425812 1088.889038,106.954964 
	C1074.323242,108.720268 1060.546753,112.638321 1047.576416,119.695099 
	C1034.781006,126.656624 1024.017456,135.753586 1015.817749,147.755707 
	C1009.287781,157.313965 1005.594299,167.957108 1003.898254,179.448578 
	C1002.285522,190.375183 1002.284424,201.081772 1006.227173,211.491699 
	C1010.815674,223.606567 1018.726807,233.105347 1028.710083,241.414017 
	C1048.694458,258.046387 1072.148438,266.233887 1097.114990,270.907379 
	C1107.554932,272.861633 1117.944214,274.408295 1127.433838,279.724182 
	C1136.819092,284.981598 1143.255005,293.738281 1138.957153,305.190094 
M1816.934937,348.688812 
	C1820.697998,357.002747 1824.302368,365.395508 1828.360840,373.562561 
	C1829.153076,375.156830 1831.695435,376.824921 1833.453247,376.849640 
	C1850.777710,377.093262 1868.107544,377.063507 1885.433472,376.879883 
	C1886.943359,376.863892 1889.055298,375.560791 1889.823242,374.237701 
	C1892.349976,369.885315 1894.455200,365.280548 1896.599609,360.715088 
	C1903.738770,345.515717 1910.864014,330.309509 1917.921021,315.071869 
	C1927.300171,294.820068 1936.527344,274.497681 1945.970825,254.276031 
	C1957.487183,229.615906 1969.178955,205.037766 1980.759277,180.407410 
	C1989.859009,161.053253 1998.931274,141.686081 2007.943848,122.291336 
	C2009.226318,119.531487 2010.102295,116.582710 2011.434448,113.000473 
	C2009.003540,113.000473 2007.240723,113.000473 2005.478027,113.000465 
	C1984.151367,113.000458 1962.812866,113.409233 1941.504395,112.786835 
	C1933.658936,112.557686 1928.610962,114.010689 1927.212646,122.331406 
	C1927.029175,123.423317 1926.328125,124.430099 1925.855957,125.471382 
	C1920.932983,136.329880 1915.897583,147.139130 1911.110962,158.057404 
	C1905.297729,171.317612 1899.709595,184.676376 1893.994995,197.980026 
	C1887.640991,212.772461 1881.339600,227.588348 1874.854614,242.323334 
	C1869.843628,253.708847 1864.584839,264.985291 1859.334351,276.534393 
	C1855.935425,269.467590 1852.413574,262.672729 1849.349976,255.677109 
	C1839.826904,233.931732 1830.517212,212.093109 1821.051270,190.322678 
	C1810.522461,166.108231 1799.775269,141.987244 1789.479858,117.674492 
	C1787.844849,113.813278 1785.839355,112.926781 1782.123413,112.944435 
	C1758.797974,113.055214 1735.471680,113.000450 1712.145752,113.000443 
	C1710.537476,113.000443 1708.929077,113.000450 1706.742920,113.000450 
	C1711.028687,122.462006 1714.959961,131.360641 1719.071655,140.175049 
	C1729.356445,162.222534 1739.756470,184.216217 1750.046997,206.260971 
	C1760.326050,228.281021 1770.461548,250.368271 1780.782104,272.368774 
	C1792.628906,297.622864 1804.609741,322.813995 1816.934937,348.688812 
M1596.000000,204.500000 
	C1596.000000,261.908447 1596.000000,319.316864 1596.000000,376.592896 
	C1620.747070,376.592896 1644.795898,376.592896 1668.740601,376.592896 
	C1668.740601,259.608551 1668.740601,143.028946 1668.740601,26.315359 
	C1644.432251,26.315359 1620.384399,26.315359 1596.000000,26.315359 
	C1596.000000,85.586716 1596.000000,144.543350 1596.000000,204.500000 
M3012.000000,207.500000 
	C3012.000000,263.907074 3012.000000,320.314148 3012.000000,376.600769 
	C3036.731689,376.600769 3060.780029,376.600769 3084.745117,376.600769 
	C3084.745117,288.622406 3084.745117,201.040924 3084.745117,113.309830 
	C3060.442627,113.309830 3036.395752,113.309830 3012.000000,113.309830 
	C3012.000000,144.578568 3012.000000,175.539291 3012.000000,207.500000 
M1683.940063,519.375549 
	C1685.315674,516.800293 1686.643677,514.198120 1688.075562,511.654480 
	C1694.245605,500.693268 1700.538452,489.800079 1706.603760,478.781494 
	C1710.831665,471.100739 1714.762817,463.256622 1719.079712,455.001251 
	C1694.781738,455.001251 1671.315308,454.958740 1647.849976,455.115326 
	C1646.551270,455.123993 1644.622437,456.491516 1644.065552,457.716736 
	C1633.423828,481.133087 1622.930664,504.617065 1612.441406,528.102661 
	C1610.299683,532.898193 1608.299194,537.756836 1606.057007,542.999084 
	C1627.201904,542.999084 1647.509888,543.037903 1667.816772,542.906738 
	C1669.092041,542.898438 1670.886108,541.880310 1671.543457,540.791382 
	C1675.676514,533.944824 1679.555908,526.945068 1683.940063,519.375549 
M2529.189941,463.320526 
	C2524.783447,465.713715 2520.187012,467.815918 2516.002441,470.548889 
	C2494.223633,484.772125 2493.167725,520.523254 2514.251465,536.656982 
	C2527.941162,547.132568 2542.843262,549.591492 2559.115723,542.508850 
	C2574.560547,535.786438 2586.957520,517.334167 2583.081543,497.087646 
	C2580.109375,481.563049 2571.500244,471.022919 2557.049316,464.932922 
	C2548.208740,461.207306 2539.154541,461.635071 2529.189941,463.320526 
M3021.077881,13.475491 
	C3008.786133,24.231485 3004.525635,38.433975 3007.294922,53.664833 
	C3013.200928,86.146896 3047.357422,96.698418 3071.458008,81.720299 
	C3089.185547,70.702766 3097.054932,47.804398 3086.703613,27.418549 
	C3080.964111,16.115320 3072.320557,7.812579 3059.573486,5.056574 
	C3045.859619,2.091493 3032.869873,3.595151 3021.077881,13.475491 
z"/>
<path fill="#05E47A" opacity="1.000000" stroke="none" 
	d="
M388.322388,687.310547 
	C378.753876,700.642944 366.845978,711.712646 354.897736,722.853821 
	C344.103546,732.918884 334.334015,744.076660 323.966888,754.609131 
	C320.038605,758.600037 315.602478,762.086914 311.589386,765.999939 
	C308.997345,768.527344 306.951050,771.623596 304.309113,774.088562 
	C299.767090,778.326355 294.817871,782.128967 290.295715,786.386353 
	C287.191284,789.309143 284.638702,792.809448 281.633545,795.847900 
	C272.212372,805.373291 262.860504,814.977051 253.168564,824.222107 
	C242.245743,834.641357 230.477524,844.406250 216.673935,850.409607 
	C201.714310,856.915833 186.319138,862.592407 169.635132,864.159241 
	C141.758179,866.777344 115.246384,863.479431 89.161186,852.438049 
	C73.065155,845.624939 59.513515,835.840942 47.285812,824.216003 
	C39.092911,816.427002 32.411232,806.765442 26.279139,797.159302 
	C17.502815,783.410828 10.781663,768.567444 7.704940,752.333313 
	C4.944932,737.770264 3.260829,723.276428 4.745643,708.283691 
	C6.146304,694.140747 8.380623,680.350708 14.029875,667.351196 
	C20.081963,653.424683 26.441250,639.590210 37.129055,628.349609 
	C49.657806,615.172852 61.963310,601.779846 74.665031,588.772949 
	C82.817604,580.424500 91.584534,572.679321 99.925964,564.510437 
	C103.451462,561.057861 106.421562,557.039612 109.933968,553.572083 
	C130.996460,532.778687 152.051712,511.975952 173.333832,491.408569 
	C177.975952,486.922363 183.529846,483.379639 187.153091,480.572693 
	C175.018906,481.626007 161.348923,483.604584 147.651871,483.814117 
	C127.616661,484.120575 108.552353,478.880035 90.142647,471.063324 
	C73.558525,464.021820 58.489651,454.594879 46.252514,441.432800 
	C36.854591,431.324524 28.601194,420.227631 21.842016,407.968262 
	C13.146270,392.196472 7.642755,375.486053 5.175174,357.826324 
	C3.021629,342.414062 3.108785,326.853729 6.816010,311.637390 
	C9.390874,301.068787 11.858749,290.266632 16.242723,280.398865 
	C21.692736,268.131622 27.929865,256.030121 37.401119,246.052353 
	C44.953049,238.096542 52.025143,229.671249 59.780399,221.925049 
	C83.328201,198.404709 107.126778,175.135666 130.781647,151.722229 
	C142.776871,139.849426 154.528366,127.727089 166.654007,115.990273 
	C179.284744,103.764565 193.195984,93.229088 209.725647,86.742378 
	C233.716309,77.327766 258.574219,72.846870 284.360016,75.087944 
	C297.900177,76.264740 310.763824,80.435165 323.628082,84.778915 
	C345.126587,92.038116 362.580536,105.103386 377.738464,121.393074 
	C390.442017,135.045090 400.233734,150.694412 407.005096,168.205444 
	C414.975159,188.816544 416.984863,210.227615 415.897705,232.024918 
	C415.558289,238.830185 414.008087,245.575043 413.131714,251.534500 
	C425.125244,239.486664 437.480896,227.041229 449.874115,214.633270 
	C470.600983,193.881714 491.304535,173.106522 512.114685,152.438766 
	C520.952271,143.661697 530.737305,135.735840 538.828247,126.335640 
	C549.052795,114.456581 560.691956,104.422096 573.712036,96.049866 
	C580.293152,91.818039 587.790283,88.848228 595.151489,86.036240 
	C603.010315,83.034157 611.130493,80.642700 619.263428,78.456581 
	C625.042664,76.903107 630.994995,75.456635 636.934387,75.129929 
	C660.964783,73.808067 684.274048,76.510246 707.121948,85.266182 
	C728.680969,93.528168 746.685730,106.398453 761.553955,123.335800 
	C779.909607,144.246002 792.059021,168.417923 796.177979,196.520340 
	C801.033936,229.651138 796.322876,260.921021 780.181702,290.191864 
	C770.235779,308.227875 756.540894,323.220367 741.009216,336.836853 
	C730.067627,346.429199 720.608704,357.703247 710.375488,368.116028 
	C700.565491,378.098114 690.675659,388.003845 680.704651,397.825165 
	C664.479065,413.807312 648.264404,429.803650 631.819092,445.557922 
	C626.345032,450.801910 620.177002,455.321411 613.470703,460.881409 
	C620.881287,459.736847 627.148438,458.156403 633.465027,457.924652 
	C645.498230,457.483154 657.652527,456.890259 669.582214,458.091278 
	C680.519653,459.192444 691.484375,461.770782 701.980408,465.126587 
	C721.081848,471.233704 737.698853,481.718658 752.330627,495.642548 
	C765.524719,508.198364 775.830750,522.722473 784.148193,538.706604 
	C790.270386,550.471985 794.188293,563.183777 795.832336,576.301270 
	C797.286194,587.901855 798.410217,599.740723 797.744690,611.363586 
	C796.759583,628.568909 793.198181,645.353088 785.545471,661.199280 
	C778.723572,675.325073 770.451721,688.456543 760.079712,700.020874 
	C751.930481,709.106873 742.251160,716.808960 733.437683,725.318604 
	C731.117981,727.558289 729.769043,730.793152 727.483459,733.080627 
	C722.817749,737.750305 717.709290,741.975525 712.994995,746.599609 
	C709.829407,749.704712 707.151855,753.302917 704.037903,756.465820 
	C696.870911,763.745300 689.668945,770.996399 682.284851,778.053528 
	C678.389954,781.776001 673.867737,784.846863 670.016174,788.608582 
	C665.034485,793.474243 660.537537,798.832092 655.657043,803.806519 
	C646.911499,812.720459 638.576660,822.149475 629.057739,830.160217 
	C619.993408,837.788513 610.611816,845.197998 599.541382,850.217773 
	C573.573242,861.992920 546.460144,867.277710 518.106262,864.862427 
	C502.120941,863.500793 486.475952,859.796204 472.041748,852.427856 
	C462.647247,847.632080 452.929718,843.081848 444.496918,836.873230 
	C428.824036,825.334167 416.267792,810.736816 406.286224,793.862549 
	C397.833618,779.573181 391.571686,764.560181 388.639526,748.226624 
	C386.154663,734.384888 384.726074,720.484619 386.933502,706.417542 
	C387.843811,700.616516 388.333282,694.749451 389.316376,688.374512 
	C389.666107,687.385986 389.713623,686.935486 389.761169,686.484985 
	C389.281586,686.760193 388.802002,687.035400 388.322388,687.310547 
M388.010895,312.811859 
	C388.364960,310.786072 388.719025,308.760254 389.073059,306.734467 
	C384.946320,310.301514 382.055847,314.310303 378.608795,317.763489 
	C371.226593,325.158691 363.415649,332.126190 356.040131,339.527771 
	C346.671967,348.928986 337.714691,358.741028 328.306366,368.100586 
	C311.208344,385.109985 293.962006,401.971527 276.676056,418.790436 
	C262.000610,433.069244 247.182114,447.200958 233.411636,460.450317 
	C283.845032,450.715302 331.393738,458.676025 371.097778,496.634949 
	C410.741760,534.536560 422.371887,581.189514 413.275818,633.410156 
	C422.437256,624.188293 431.881714,614.789490 441.202423,605.269531 
	C450.775330,595.492004 460.178284,585.548157 469.749359,575.768860 
	C476.098297,569.281860 482.564148,562.907043 489.065033,556.571594 
	C496.350708,549.471436 503.714874,542.451233 511.082886,535.436157 
	C516.367432,530.404663 521.773865,525.500305 527.021423,520.431091 
	C539.014404,508.845612 550.927795,497.177765 562.914490,485.585785 
	C564.732910,483.827301 566.770874,482.295837 569.225830,480.221039 
	C560.211975,481.240875 552.120117,482.639435 543.985962,482.956970 
	C533.309753,483.373718 522.369141,484.296173 511.963867,482.524780 
	C499.070343,480.329742 486.226196,476.551544 474.075043,471.676758 
	C463.367035,467.380951 453.014679,461.498810 443.672943,454.710297 
	C435.641205,448.873688 429.183502,440.841095 422.163330,433.649200 
	C409.962311,421.149780 402.101013,405.974701 395.485504,390.028839 
	C389.269775,375.046600 386.338348,359.351654 386.145660,343.264740 
	C386.027588,333.410431 387.334351,323.539093 388.010895,312.811859 
z"/>
<path fill="#05E47A" opacity="1.000000" stroke="none" 
	d="
M1378.014893,661.077515 
	C1370.612061,646.115112 1359.411743,636.173706 1343.244873,632.673462 
	C1321.807007,628.031921 1302.516968,632.098511 1287.655273,649.075134 
	C1279.497314,658.394104 1275.073486,670.035095 1273.149048,682.228821 
	C1271.742676,691.139832 1271.139282,700.258179 1271.091309,709.288940 
	C1270.880005,749.118652 1271.000000,788.950134 1271.000000,828.780945 
	C1271.000000,830.603516 1271.000000,832.426086 1271.000000,834.622437 
	C1246.736328,834.622437 1222.684692,834.622437 1198.000000,834.622437 
	C1198.000000,832.735840 1198.000000,830.801392 1198.000000,828.866943 
	C1198.000000,788.036194 1198.287842,747.202209 1197.838501,706.376404 
	C1197.688110,692.706726 1196.655762,678.909241 1191.070312,665.981567 
	C1182.928589,647.136841 1170.062988,634.758362 1148.723633,631.800232 
	C1131.418579,629.401367 1116.172241,633.266357 1102.814697,643.931702 
	C1095.393677,649.857056 1091.412598,658.678467 1088.120728,667.398987 
	C1083.821533,678.788574 1081.780029,690.600952 1081.875854,702.967529 
	C1082.201172,744.962341 1082.000122,786.961304 1082.000244,828.958679 
	C1082.000244,830.766541 1082.000366,832.574341 1082.000366,834.685425 
	C1057.276489,834.685425 1032.892212,834.685425 1008.000122,834.685425 
	C1008.000122,832.593201 1008.000122,830.642029 1008.000122,828.690857 
	C1008.000061,784.860291 1007.556213,741.023132 1008.201660,697.202087 
	C1008.491028,677.552612 1012.388855,658.412598 1020.734924,640.139221 
	C1027.211670,625.958435 1035.112427,612.987549 1045.796509,601.805603 
	C1063.128418,583.666321 1084.441528,572.612366 1108.823486,566.920776 
	C1125.999146,562.911316 1143.409180,562.348877 1160.451904,565.318970 
	C1181.822998,569.043274 1201.819702,577.114685 1218.403687,591.910889 
	C1223.845947,596.766479 1229.207764,601.712402 1234.130615,606.184875 
	C1242.850464,598.849487 1251.155640,590.708862 1260.584595,584.194946 
	C1275.649170,573.787903 1292.706055,567.568726 1310.862183,565.060059 
	C1339.642334,561.083618 1367.138794,565.541809 1392.995361,579.025330 
	C1404.421509,584.983704 1414.106323,593.149048 1423.071655,602.415955 
	C1437.304688,617.127563 1447.096680,634.300415 1453.243042,653.672302 
	C1457.474609,667.008911 1459.976318,680.617798 1460.043457,694.695862 
	C1460.261719,740.461487 1460.665283,786.226196 1460.989502,831.991333 
	C1460.995239,832.798157 1460.902832,833.605652 1460.839722,834.698364 
	C1436.263184,834.698364 1411.877930,834.698364 1386.999878,834.698364 
	C1386.999878,832.743774 1386.999878,830.957642 1386.999878,829.171448 
	C1386.999878,787.840698 1387.267944,746.507019 1386.817017,705.181213 
	C1386.699951,694.458740 1384.638062,683.709534 1382.845459,673.077881 
	C1382.166138,669.049377 1379.726562,665.317810 1378.014893,661.077515 
z"/>
<path fill="#05E47A" opacity="1.000000" stroke="none" 
	d="
M2571.000000,342.000000 
	C2571.000000,353.800049 2571.000000,365.100098 2571.000000,376.696960 
	C2546.574219,376.696960 2522.522949,376.696960 2498.000000,376.696960 
	C2498.000000,374.744659 2498.000000,372.957153 2498.000000,371.169678 
	C2498.000000,327.674713 2497.956299,284.179718 2498.014160,240.684830 
	C2498.058594,207.304138 2507.996094,177.043823 2528.813965,151.016998 
	C2542.411865,134.016266 2559.929199,121.753448 2580.552490,113.876587 
	C2600.918701,106.098076 2622.022461,104.668266 2643.236572,106.254715 
	C2665.454346,107.916214 2685.551514,116.542427 2703.319092,129.982254 
	C2710.621582,135.505890 2717.162842,142.035324 2724.428711,148.440491 
	C2726.748047,146.014984 2729.527344,142.808914 2732.613281,139.931290 
	C2750.217041,123.514069 2770.552734,112.338158 2794.412842,107.978912 
	C2817.673828,103.729179 2840.789062,104.990204 2863.117676,112.250198 
	C2884.028809,119.049461 2901.931885,131.256195 2916.435303,148.001236 
	C2933.247314,167.411789 2943.192627,190.160019 2947.824463,215.213806 
	C2949.312744,223.262238 2949.870117,231.582550 2949.907227,239.782776 
	C2950.104248,283.276855 2950.000000,326.772247 2950.000000,370.267212 
	C2950.000000,372.257935 2950.000000,374.248657 2950.000000,376.618103 
	C2925.759033,376.618103 2901.707275,376.618103 2877.000000,376.618103 
	C2877.000000,374.758850 2877.000000,372.827606 2877.000000,370.896332 
	C2877.000000,329.401154 2877.383789,287.900848 2876.829834,246.413071 
	C2876.572754,227.154739 2873.161133,208.319275 2861.047119,192.266769 
	C2854.186768,183.175690 2845.296143,177.070099 2834.173096,174.657928 
	C2820.068604,171.599243 2806.253662,171.817566 2792.903320,178.521713 
	C2780.179932,184.911163 2772.423584,195.532074 2767.160156,208.084686 
	C2762.367188,219.514084 2760.899414,231.681763 2760.943115,244.116226 
	C2761.091553,286.444122 2761.000000,328.772858 2761.000000,371.101288 
	C2761.000000,372.893311 2761.000000,374.685364 2761.000000,376.734406 
	C2736.291748,376.734406 2712.025635,376.734406 2686.999512,376.734406 
	C2686.999512,374.884888 2686.999512,372.968170 2686.999512,371.051483 
	C2686.999756,327.389893 2687.135986,283.727661 2686.930420,240.067017 
	C2686.852783,223.582306 2682.809570,208.009155 2673.039551,194.427109 
	C2663.381348,181.001022 2650.348877,173.578339 2633.545166,172.947647 
	C2621.144531,172.482224 2609.347900,173.996262 2598.732178,181.036682 
	C2589.723145,187.011444 2583.576904,195.352554 2579.094482,204.959503 
	C2572.210205,219.714981 2571.092285,235.565094 2571.032471,251.511505 
	C2570.919922,281.507294 2571.000000,311.503784 2571.000000,342.000000 
z"/>
<path fill="#05E47A" opacity="1.000000" stroke="none" 
	d="
M1856.729126,776.215576 
	C1851.525391,765.365173 1845.895386,755.038269 1841.786987,744.137878 
	C1834.963379,726.033203 1834.582886,706.813232 1836.270264,687.951294 
	C1838.554688,662.414673 1848.300415,639.308594 1864.377441,619.186462 
	C1886.262817,591.794556 1914.478149,574.616028 1948.731567,566.887634 
	C1964.142944,563.410583 1979.783813,562.690491 1995.095703,564.354919 
	C2019.232788,566.978577 2042.462402,573.697937 2062.336426,588.749756 
	C2070.151367,594.668701 2078.517822,600.116638 2085.323730,607.062439 
	C2105.097900,627.242798 2117.983643,651.367676 2122.832275,679.348083 
	C2124.315674,687.907288 2124.889648,696.721558 2124.909668,705.421265 
	C2125.070801,775.420044 2125.000000,845.419373 2125.000000,915.418518 
	C2125.000000,917.394348 2125.000000,919.370239 2125.000000,921.671753 
	C2100.303711,921.671753 2075.918457,921.671753 2051.137695,921.671753 
	C2051.137695,886.314697 2051.137695,851.063293 2051.137695,814.833862 
	C2047.468628,817.560425 2044.426758,819.649597 2041.573486,821.970642 
	C2028.009033,833.004944 2012.287109,838.771423 1995.144897,840.993164 
	C1964.583374,844.954224 1935.567627,839.279724 1908.765137,824.636475 
	C1896.595337,817.987610 1884.378174,810.585510 1875.531250,799.114136 
	C1869.577393,791.394287 1863.183594,784.013672 1856.729126,776.215576 
M1962.029297,772.591370 
	C1965.861206,773.392761 1969.661621,774.658569 1973.530029,774.919434 
	C1996.846069,776.491882 2017.369629,770.313049 2033.742065,752.784424 
	C2049.171875,736.264893 2055.661865,717.061462 2053.176270,694.389648 
	C2051.434326,678.500549 2044.832642,665.192139 2034.227051,653.881958 
	C2016.239380,634.699158 1993.514404,627.711853 1968.039551,632.306458 
	C1948.541626,635.822937 1932.428467,646.157959 1921.437012,663.183350 
	C1910.303955,680.428223 1906.274536,699.112488 1911.003662,719.378723 
	C1913.651367,730.725403 1919.028809,740.793152 1926.388184,749.595459 
	C1935.611816,760.627808 1947.159668,768.533081 1962.029297,772.591370 
z"/>
<path fill="#05E47A" opacity="1.000000" stroke="none" 
	d="
M1687.815674,569.046143 
	C1701.752930,573.052429 1714.883179,578.066895 1726.571655,586.009094 
	C1735.072754,591.785400 1743.754272,597.653870 1751.000122,604.846436 
	C1766.937378,620.666443 1779.028564,639.113831 1786.032959,660.783386 
	C1790.677734,675.153076 1793.026855,689.718628 1793.012817,704.761597 
	C1792.974487,745.919312 1792.999756,787.076965 1792.999756,828.234680 
	C1792.999756,830.227905 1792.999756,832.221130 1792.999756,834.606506 
	C1770.112183,834.606506 1747.395508,834.606506 1724.073120,834.606506 
	C1724.073120,824.719727 1724.073120,814.707214 1724.073120,803.334290 
	C1713.474243,817.562744 1701.280884,827.672180 1686.321289,834.248230 
	C1675.770752,838.886047 1664.808105,841.673767 1653.179565,842.065002 
	C1636.114014,842.639221 1619.348022,840.829102 1603.066650,835.847595 
	C1585.770264,830.555603 1570.280518,821.854797 1555.919800,810.679382 
	C1539.511108,797.910156 1526.728394,782.326599 1517.710571,763.897888 
	C1510.111084,748.367615 1505.312500,731.974731 1503.738525,714.357300 
	C1500.686768,680.196167 1510.608032,649.965637 1529.560669,622.459534 
	C1538.503662,609.480652 1550.493774,599.072876 1563.493652,589.783203 
	C1581.869507,576.651794 1602.539185,569.056335 1624.257324,565.391052 
	C1645.251831,561.847900 1666.645020,562.695129 1687.815674,569.046143 
M1609.391235,763.078674 
	C1625.441772,773.723206 1642.955322,777.134338 1661.917969,774.034119 
	C1698.416260,768.066956 1724.362549,734.614563 1721.116089,697.652283 
	C1719.804321,682.715698 1714.782959,669.648010 1705.498657,657.779358 
	C1692.509644,641.174622 1675.074097,632.735962 1654.895752,631.279785 
	C1629.262817,629.429932 1607.453613,638.747253 1591.867065,659.777161 
	C1577.939575,678.568542 1573.891968,699.672058 1580.033447,722.391418 
	C1584.614746,739.339661 1594.508057,752.680725 1609.391235,763.078674 
z"/>
<path fill="#05E47A" opacity="1.000000" stroke="none" 
	d="
M3245.000000,726.000000 
	C3245.000000,762.459778 3245.000000,798.419617 3245.000000,834.688721 
	C3221.946533,834.688721 3199.232422,834.688721 3176.144531,834.688721 
	C3176.144531,824.961060 3176.144531,815.366394 3176.144531,805.771790 
	C3175.687500,805.414734 3175.230469,805.057678 3174.773193,804.700623 
	C3173.395508,806.426270 3172.027588,808.160034 3170.638428,809.876282 
	C3156.258789,827.639404 3137.436523,837.772034 3115.068115,840.911377 
	C3085.616699,845.044983 3057.499023,839.514221 3031.351074,825.816101 
	C3020.147949,819.947083 3009.220947,812.687378 2999.982666,804.106140 
	C2979.047607,784.659668 2964.843750,760.603760 2958.430176,732.623596 
	C2954.755371,716.590637 2954.234375,700.234070 2956.814453,683.723267 
	C2960.150879,662.374023 2967.770020,642.903137 2979.993164,625.223022 
	C2989.776855,611.071838 3001.954590,599.303650 3016.063232,589.382202 
	C3034.314697,576.547546 3054.847168,568.916931 3076.424805,565.474304 
	C3095.380127,562.450134 3114.655762,562.721252 3133.842285,567.629150 
	C3150.502930,571.890808 3166.192871,577.846924 3180.565430,587.019165 
	C3202.744873,601.173645 3219.998779,620.037903 3231.301270,643.884583 
	C3238.011475,658.041748 3243.450928,672.742126 3243.990479,688.712646 
	C3244.404785,700.972473 3244.669189,713.237366 3245.000000,726.000000 
M3167.934082,673.817078 
	C3162.295166,662.686829 3155.110840,652.826660 3144.897949,645.383240 
	C3127.553711,632.742371 3108.177490,628.134583 3087.309326,632.499512 
	C3071.934082,635.715637 3058.651367,642.973145 3047.801514,655.234375 
	C3035.497070,669.139587 3029.834473,685.258240 3029.418457,703.051819 
	C3029.133301,715.240112 3032.319336,727.181763 3038.523193,738.168274 
	C3050.720703,759.768921 3069.397705,772.100159 3093.536377,774.738831 
	C3116.675293,777.268250 3137.114990,770.269775 3153.741211,752.905151 
	C3166.798096,739.268250 3172.688477,722.924622 3173.850830,704.703308 
	C3174.510986,694.354004 3171.819336,684.277649 3167.934082,673.817078 
z"/>
<path fill="#05E47A" opacity="1.000000" stroke="none" 
	d="
M2078.777344,135.725281 
	C2089.201416,129.592133 2099.118652,123.215469 2109.599365,117.962212 
	C2122.226074,111.633339 2135.899170,108.212585 2149.984131,107.081383 
	C2159.548096,106.313255 2169.202637,105.710190 2178.768311,106.131935 
	C2197.679199,106.965706 2215.597900,111.532387 2232.950195,119.715012 
	C2251.440918,128.434448 2267.391846,140.154663 2280.602783,155.344589 
	C2295.796387,172.814697 2306.263916,192.933655 2311.117432,215.886368 
	C2313.845215,228.786240 2314.024170,241.726913 2314.012451,254.761215 
	C2313.978271,293.426178 2314.000000,332.091187 2314.000000,370.756195 
	C2314.000000,372.581390 2314.000000,374.406586 2314.000000,376.614380 
	C2291.100342,376.614380 2268.382080,376.614380 2245.167969,376.614380 
	C2245.167969,366.796692 2245.167969,356.909973 2245.167969,347.761047 
	C2238.083984,354.045990 2231.199463,360.748138 2223.698730,366.669128 
	C2212.508789,375.502441 2199.704590,381.186798 2185.488037,382.944550 
	C2159.568115,386.149323 2134.669189,382.736481 2110.458496,372.343567 
	C2090.183594,363.640289 2072.773682,351.199402 2058.542969,334.764221 
	C2041.828735,315.460663 2030.781860,293.243469 2026.813599,267.498413 
	C2022.018799,236.390320 2026.387329,206.948608 2041.415161,179.518417 
	C2049.296143,165.133102 2059.209717,151.876526 2072.584229,141.725830 
	C2074.762207,140.072876 2076.551514,137.907791 2078.777344,135.725281 
M2239.533936,267.963959 
	C2243.554932,256.188232 2244.084229,244.166870 2242.002441,231.978531 
	C2238.817627,213.330566 2229.049072,198.548737 2214.335205,187.200363 
	C2197.592773,174.287506 2178.394043,170.651245 2157.648682,173.963791 
	C2141.975586,176.466415 2128.939941,184.132797 2118.412354,195.410339 
	C2109.618408,204.830734 2102.827637,215.816666 2100.419678,229.020279 
	C2097.830322,243.219193 2097.919678,257.242737 2103.409668,270.668854 
	C2109.831787,286.374603 2120.151611,298.876678 2135.053223,307.670044 
	C2149.296143,316.074677 2164.709473,318.743011 2180.552734,316.729187 
	C2199.340820,314.341125 2215.307373,305.315430 2226.972656,290.214691 
	C2231.960449,283.758026 2235.108398,275.880280 2239.533936,267.963959 
z"/>
<path fill="#05E47A" opacity="1.000000" stroke="none" 
	d="
M1252.951050,211.915405 
	C1257.952393,194.413345 1264.914062,178.456787 1275.776733,164.029099 
	C1286.442383,149.862961 1298.986694,138.117340 1313.804932,128.628021 
	C1330.031982,118.236488 1347.490601,110.553139 1366.652222,108.196976 
	C1380.387451,106.508049 1394.434448,105.391853 1408.191284,106.302505 
	C1428.511719,107.647644 1447.598145,114.096313 1465.705444,123.920837 
	C1480.889038,132.158966 1493.562866,143.153824 1504.998657,155.678925 
	C1516.175659,167.920578 1524.070068,182.286880 1529.984375,197.806885 
	C1536.104492,213.866425 1538.243896,230.387573 1538.106689,247.520111 
	C1537.776855,288.683716 1538.000000,329.851807 1538.000000,371.018066 
	C1538.000000,372.817780 1538.000000,374.617493 1538.000000,376.705261 
	C1515.349243,376.705261 1493.081299,376.705261 1470.339355,376.705261 
	C1470.339355,366.615845 1470.339355,356.371490 1470.339355,345.012238 
	C1465.058105,350.718994 1460.930420,356.026917 1455.965942,360.380646 
	C1442.509766,372.181702 1427.270264,380.659210 1409.190063,382.990692 
	C1387.158081,385.831726 1365.545288,383.877014 1344.661255,376.208679 
	C1327.605103,369.945831 1311.826660,361.504822 1297.816772,349.533844 
	C1277.319458,332.019806 1263.509766,310.526459 1254.919678,285.103516 
	C1249.090576,267.851257 1248.404541,250.248947 1249.168213,232.476501 
	C1249.458496,225.720474 1251.607666,219.044312 1252.951050,211.915405 
M1445.954590,193.470947 
	C1440.448486,189.361664 1435.346558,184.496887 1429.356567,181.291931 
	C1414.440552,173.311066 1398.417480,171.188171 1381.645142,173.947327 
	C1362.511353,177.094971 1347.621216,187.654968 1336.598022,202.499893 
	C1325.062866,218.034149 1320.848022,236.218536 1323.839600,255.998276 
	C1326.680542,274.782288 1335.849121,289.688812 1350.088745,301.339600 
	C1367.280518,315.405853 1387.432739,319.999084 1409.239746,315.910583 
	C1425.748169,312.815491 1440.151978,304.482574 1450.280884,291.623505 
	C1463.352295,275.028992 1470.434204,255.921539 1466.203247,233.740616 
	C1463.281128,218.421097 1456.905151,205.318375 1445.954590,193.470947 
z"/>
<path fill="#05E47A" opacity="1.000000" stroke="none" 
	d="
M2839.000000,734.000000 
	C2839.000000,721.836426 2839.320312,710.161987 2838.925781,698.511780 
	C2838.322021,680.688721 2832.874268,664.513550 2821.214600,650.693726 
	C2811.802734,639.538025 2799.560303,634.174133 2785.355957,631.891052 
	C2769.496582,629.341858 2754.864746,632.434814 2741.857666,641.197693 
	C2727.502686,650.868896 2719.430664,665.326172 2716.177979,682.090942 
	C2714.529053,690.589478 2714.135742,699.432373 2714.091309,708.124329 
	C2713.885498,748.445862 2714.000488,788.769043 2714.000488,829.091675 
	C2714.000488,830.884888 2714.000488,832.678162 2714.000488,834.732422 
	C2689.308594,834.732422 2665.044922,834.732422 2640.000000,834.732422 
	C2640.000000,833.072083 2640.000244,831.325439 2640.000000,829.578796 
	C2639.996338,783.757812 2639.459961,737.926575 2640.338867,692.122559 
	C2640.578369,679.645203 2644.427979,667.069702 2647.795898,654.863586 
	C2651.724854,640.625671 2659.043945,627.896301 2667.918213,616.010803 
	C2674.968506,606.568176 2682.695312,597.809937 2692.498779,591.324158 
	C2701.561279,585.328491 2710.750000,579.051880 2720.746826,575.063721 
	C2732.267334,570.467896 2744.573730,567.218262 2756.838623,565.295715 
	C2768.048584,563.538574 2779.792480,563.067505 2791.064209,564.263123 
	C2815.548828,566.860474 2838.275635,574.896729 2858.367188,589.765930 
	C2876.476562,603.168335 2889.910156,620.308044 2899.556152,640.401306 
	C2905.491455,652.765625 2909.179932,665.958618 2911.020752,679.630371 
	C2914.449463,705.091492 2912.671143,730.678589 2912.939697,756.210083 
	C2913.212646,782.197449 2913.000000,808.189941 2913.000000,834.589478 
	C2888.470459,834.589478 2864.089111,834.589478 2839.000000,834.589478 
	C2839.000000,801.326965 2839.000000,767.913452 2839.000000,734.000000 
z"/>
<path fill="#05E47A" opacity="1.000000" stroke="none" 
	d="
M2350.604248,836.728210 
	C2332.272461,842.196533 2313.764404,843.239929 2295.357910,841.763000 
	C2275.414062,840.162842 2256.149658,834.829468 2239.022949,823.952759 
	C2220.312012,812.069885 2205.362793,796.628967 2194.325684,777.089233 
	C2185.166260,760.873962 2180.246094,743.542908 2177.113770,725.507263 
	C2176.244873,720.501465 2176.054688,715.328003 2176.045410,710.230530 
	C2175.966309,666.412537 2176.000000,622.594360 2176.000000,578.776245 
	C2176.000000,576.782532 2176.000000,574.788757 2176.000000,572.397705 
	C2200.548340,572.397705 2224.928955,572.397705 2250.000977,572.397705 
	C2250.000977,574.193298 2250.000977,576.119141 2250.000732,578.044983 
	C2250.000244,622.696167 2249.762939,667.349243 2250.126953,711.997437 
	C2250.256348,727.872986 2255.630615,742.345642 2265.492188,755.026001 
	C2279.590332,773.154114 2298.538086,776.940491 2320.039795,774.196716 
	C2330.302246,772.887085 2339.113037,768.493469 2346.876953,762.279846 
	C2350.973389,759.001343 2353.879883,754.067383 2356.826904,749.556213 
	C2363.074463,739.992126 2367.472900,729.509827 2367.884521,718.037598 
	C2368.629150,697.294739 2368.833740,676.527588 2368.958740,655.768738 
	C2369.125244,628.116333 2369.000000,600.462219 2369.000000,572.404541 
	C2393.533691,572.404541 2417.914307,572.404541 2443.000000,572.404541 
	C2443.000000,574.179504 2443.000000,576.103516 2443.000000,578.027588 
	C2443.000000,618.513489 2442.958984,658.999512 2443.015869,699.485352 
	C2443.049072,723.000549 2439.659424,745.997498 2429.603271,767.303162 
	C2419.088867,789.580139 2404.389648,808.955078 2382.615967,821.543091 
	C2372.543701,827.366211 2361.544922,831.586548 2350.604248,836.728210 
z"/>
<path fill="#05E47A" opacity="1.000000" stroke="none" 
	d="
M1139.049316,304.805237 
	C1143.255005,293.738281 1136.819092,284.981598 1127.433838,279.724182 
	C1117.944214,274.408295 1107.554932,272.861633 1097.114990,270.907379 
	C1072.148438,266.233887 1048.694458,258.046387 1028.710083,241.414017 
	C1018.726807,233.105347 1010.815674,223.606567 1006.227173,211.491699 
	C1002.284424,201.081772 1002.285522,190.375183 1003.898254,179.448578 
	C1005.594299,167.957108 1009.287781,157.313965 1015.817749,147.755707 
	C1024.017456,135.753586 1034.781006,126.656624 1047.576416,119.695099 
	C1060.546753,112.638321 1074.323242,108.720268 1088.889038,106.954964 
	C1109.757080,104.425812 1130.463867,105.407173 1150.254639,112.390144 
	C1160.394043,115.967751 1170.080566,121.626419 1178.956787,127.803032 
	C1192.925415,137.523087 1202.413696,151.179962 1207.054565,167.608017 
	C1209.565552,176.496567 1210.560669,185.813339 1212.360962,195.596771 
	C1186.795532,195.596771 1162.739990,195.596771 1138.340088,195.596771 
	C1137.519653,191.713089 1137.014038,187.507523 1135.722656,183.558975 
	C1132.299438,173.092361 1123.526489,169.300598 1113.810181,168.224991 
	C1103.101318,167.039490 1092.498901,167.962448 1083.256836,174.888489 
	C1075.963745,180.353836 1074.782227,193.081055 1081.056396,199.579941 
	C1090.713379,209.582825 1103.110352,214.020660 1116.143677,216.917419 
	C1128.376709,219.636292 1140.971069,220.900848 1153.033203,224.179153 
	C1175.604370,230.313660 1195.275757,241.481033 1206.754272,262.857605 
	C1213.286743,275.023224 1216.083374,288.200867 1214.305664,302.566284 
	C1212.635864,316.059265 1208.675049,328.466705 1201.531006,339.681458 
	C1193.581543,352.160522 1182.804688,361.987976 1169.613281,369.018280 
	C1157.490967,375.478912 1144.911621,381.092529 1131.184814,382.235535 
	C1117.605469,383.366211 1103.817017,383.833954 1090.260132,382.784851 
	C1079.855469,381.979706 1069.243530,379.482422 1059.472046,375.768890 
	C1038.730835,367.886414 1020.976746,355.552094 1010.091064,335.432953 
	C1005.200012,326.393188 1001.550598,316.780396 1000.958008,306.274750 
	C1000.738708,302.387817 1000.118286,298.523499 999.640198,294.289673 
	C1024.758057,294.289673 1049.152588,294.289673 1073.862061,294.289673 
	C1073.555298,304.626251 1077.596802,312.821320 1086.532593,317.665131 
	C1094.828613,322.162048 1104.172729,323.125824 1113.389282,321.652496 
	C1121.269775,320.392822 1129.202637,318.376434 1134.698242,311.732880 
	C1136.346191,309.740753 1137.549927,307.381287 1139.049316,304.805237 
z"/>
<path fill="#05E47A" opacity="1.000000" stroke="none" 
	d="
M1816.733643,348.360657 
	C1804.609741,322.813995 1792.628906,297.622864 1780.782104,272.368774 
	C1770.461548,250.368271 1760.326050,228.281021 1750.046997,206.260971 
	C1739.756470,184.216217 1729.356445,162.222534 1719.071655,140.175049 
	C1714.959961,131.360641 1711.028687,122.462006 1706.742920,113.000450 
	C1708.929077,113.000450 1710.537476,113.000443 1712.145752,113.000443 
	C1735.471680,113.000450 1758.797974,113.055214 1782.123413,112.944435 
	C1785.839355,112.926781 1787.844849,113.813278 1789.479858,117.674492 
	C1799.775269,141.987244 1810.522461,166.108231 1821.051270,190.322678 
	C1830.517212,212.093109 1839.826904,233.931732 1849.349976,255.677109 
	C1852.413574,262.672729 1855.935425,269.467590 1859.334351,276.534393 
	C1864.584839,264.985291 1869.843628,253.708847 1874.854614,242.323334 
	C1881.339600,227.588348 1887.640991,212.772461 1893.994995,197.980026 
	C1899.709595,184.676376 1905.297729,171.317612 1911.110962,158.057404 
	C1915.897583,147.139130 1920.932983,136.329880 1925.855957,125.471382 
	C1926.328125,124.430099 1927.029175,123.423317 1927.212646,122.331406 
	C1928.610962,114.010689 1933.658936,112.557686 1941.504395,112.786835 
	C1962.812866,113.409233 1984.151367,113.000458 2005.478027,113.000465 
	C2007.240723,113.000473 2009.003540,113.000473 2011.434448,113.000473 
	C2010.102295,116.582710 2009.226318,119.531487 2007.943848,122.291336 
	C1998.931274,141.686081 1989.859009,161.053253 1980.759277,180.407410 
	C1969.178955,205.037766 1957.487183,229.615906 1945.970825,254.276031 
	C1936.527344,274.497681 1927.300171,294.820068 1917.921021,315.071869 
	C1910.864014,330.309509 1903.738770,345.515717 1896.599609,360.715088 
	C1894.455200,365.280548 1892.349976,369.885315 1889.823242,374.237701 
	C1889.055298,375.560791 1886.943359,376.863892 1885.433472,376.879883 
	C1868.107544,377.063507 1850.777710,377.093262 1833.453247,376.849640 
	C1831.695435,376.824921 1829.153076,375.156830 1828.360840,373.562561 
	C1824.302368,365.395508 1820.697998,357.002747 1816.733643,348.360657 
z"/>
<path fill="#05E47A" opacity="1.000000" stroke="none" 
	d="
M1596.000000,204.000000 
	C1596.000000,144.543350 1596.000000,85.586716 1596.000000,26.315359 
	C1620.384399,26.315359 1644.432251,26.315359 1668.740601,26.315359 
	C1668.740601,143.028946 1668.740601,259.608551 1668.740601,376.592896 
	C1644.795898,376.592896 1620.747070,376.592896 1596.000000,376.592896 
	C1596.000000,319.316864 1596.000000,261.908447 1596.000000,204.000000 
z"/>
<path fill="#05E47A" opacity="1.000000" stroke="none" 
	d="
M2578.789062,573.016174 
	C2578.837158,574.845642 2578.927246,576.675171 2578.927246,578.504639 
	C2578.934326,661.945740 2578.933350,745.386780 2578.933350,828.827881 
	C2578.933350,830.648621 2578.933105,832.469360 2578.933105,834.644287 
	C2554.076660,834.644287 2529.372314,834.644287 2504.337891,834.644287 
	C2504.337891,747.320435 2504.337891,659.980103 2504.337891,572.027771 
	C2528.575439,572.027771 2552.822998,572.027771 2577.647461,572.255615 
	C2578.385742,572.689270 2578.573975,572.866821 2578.789062,573.016174 
z"/>
<path fill="#05E47A" opacity="1.000000" stroke="none" 
	d="
M3012.000000,207.000000 
	C3012.000000,175.539291 3012.000000,144.578568 3012.000000,113.309830 
	C3036.395752,113.309830 3060.442627,113.309830 3084.745117,113.309830 
	C3084.745117,201.040924 3084.745117,288.622406 3084.745117,376.600769 
	C3060.780029,376.600769 3036.731689,376.600769 3012.000000,376.600769 
	C3012.000000,320.314148 3012.000000,263.907074 3012.000000,207.000000 
z"/>
<path fill="#05E47A" opacity="1.000000" stroke="none" 
	d="
M1683.729736,519.685791 
	C1679.555908,526.945068 1675.676514,533.944824 1671.543457,540.791382 
	C1670.886108,541.880310 1669.092041,542.898438 1667.816772,542.906738 
	C1647.509888,543.037903 1627.201904,542.999084 1606.057007,542.999084 
	C1608.299194,537.756836 1610.299683,532.898193 1612.441406,528.102661 
	C1622.930664,504.617065 1633.423828,481.133087 1644.065552,457.716736 
	C1644.622437,456.491516 1646.551270,455.123993 1647.849976,455.115326 
	C1671.315308,454.958740 1694.781738,455.001251 1719.079712,455.001251 
	C1714.762817,463.256622 1710.831665,471.100739 1706.603760,478.781494 
	C1700.538452,489.800079 1694.245605,500.693268 1688.075562,511.654480 
	C1686.643677,514.198120 1685.315674,516.800293 1683.729736,519.685791 
z"/>
<path fill="#05E47A" opacity="1.000000" stroke="none" 
	d="
M2529.592773,463.184753 
	C2539.154541,461.635071 2548.208740,461.207306 2557.049316,464.932922 
	C2571.500244,471.022919 2580.109375,481.563049 2583.081543,497.087646 
	C2586.957520,517.334167 2574.560547,535.786438 2559.115723,542.508850 
	C2542.843262,549.591492 2527.941162,547.132568 2514.251465,536.656982 
	C2493.167725,520.523254 2494.223633,484.772125 2516.002441,470.548889 
	C2520.187012,467.815918 2524.783447,465.713715 2529.592773,463.184753 
z"/>
<path fill="#05E47A" opacity="1.000000" stroke="none" 
	d="
M3021.382324,13.280660 
	C3032.869873,3.595151 3045.859619,2.091493 3059.573486,5.056574 
	C3072.320557,7.812579 3080.964111,16.115320 3086.703613,27.418549 
	C3097.054932,47.804398 3089.185547,70.702766 3071.458008,81.720299 
	C3047.357422,96.698418 3013.200928,86.146896 3007.294922,53.664833 
	C3004.525635,38.433975 3008.786133,24.231485 3021.382324,13.280660 
z"/>
<path fill="#00CC66" opacity="1.000000" stroke="none" 
	d="
M2578.825195,572.763000 
	C2578.573975,572.866821 2578.385742,572.689270 2578.111328,572.324951 
	C2578.285889,572.280884 2578.573486,572.395386 2578.825195,572.763000 
z"/>
<path fill="#000000" opacity="1.000000" stroke="none" 
	d="
M388.006104,313.243622 
	C387.334351,323.539093 386.027588,333.410431 386.145660,343.264740 
	C386.338348,359.351654 389.269775,375.046600 395.485504,390.028839 
	C402.101013,405.974701 409.962311,421.149780 422.163330,433.649200 
	C429.183502,440.841095 435.641205,448.873688 443.672943,454.710297 
	C453.014679,461.498810 463.367035,467.380951 474.075043,471.676758 
	C486.226196,476.551544 499.070343,480.329742 511.963867,482.524780 
	C522.369141,484.296173 533.309753,483.373718 543.985962,482.956970 
	C552.120117,482.639435 560.211975,481.240875 569.225830,480.221039 
	C566.770874,482.295837 564.732910,483.827301 562.914490,485.585785 
	C550.927795,497.177765 539.014404,508.845612 527.021423,520.431091 
	C521.773865,525.500305 516.367432,530.404663 511.082886,535.436157 
	C503.714874,542.451233 496.350708,549.471436 489.065033,556.571594 
	C482.564148,562.907043 476.098297,569.281860 469.749359,575.768860 
	C460.178284,585.548157 450.775330,595.492004 441.202423,605.269531 
	C431.881714,614.789490 422.437256,624.188293 413.275818,633.410156 
	C422.371887,581.189514 410.741760,534.536560 371.097778,496.634949 
	C331.393738,458.676025 283.845032,450.715302 233.411636,460.450317 
	C247.182114,447.200958 262.000610,433.069244 276.676056,418.790436 
	C293.962006,401.971527 311.208344,385.109985 328.306366,368.100586 
	C337.714691,358.741028 346.671967,348.928986 356.040131,339.527771 
	C363.415649,332.126190 371.226593,325.158691 378.608795,317.763489 
	C382.055847,314.310303 384.946320,310.301514 389.073059,306.734467 
	C388.719025,308.760254 388.364960,310.786072 388.006104,313.243622 
z"/>
<path fill="#000000" opacity="1.000000" stroke="none" 
	d="
M388.512085,687.501648 
	C388.802002,687.035400 389.281586,686.760193 389.761169,686.484985 
	C389.713623,686.935486 389.666107,687.385986 389.351562,687.953979 
	C388.956970,687.945190 388.829376,687.818970 388.512085,687.501648 
z"/>
<path fill="#000000" opacity="1.000000" stroke="none" 
	d="
M1961.676270,772.369324 
	C1947.159668,768.533081 1935.611816,760.627808 1926.388184,749.595459 
	C1919.028809,740.793152 1913.651367,730.725403 1911.003662,719.378723 
	C1906.274536,699.112488 1910.303955,680.428223 1921.437012,663.183350 
	C1932.428467,646.157959 1948.541626,635.822937 1968.039551,632.306458 
	C1993.514404,627.711853 2016.239380,634.699158 2034.227051,653.881958 
	C2044.832642,665.192139 2051.434326,678.500549 2053.176270,694.389648 
	C2055.661865,717.061462 2049.171875,736.264893 2033.742065,752.784424 
	C2017.369629,770.313049 1996.846069,776.491882 1973.530029,774.919434 
	C1969.661621,774.658569 1965.861206,773.392761 1961.676270,772.369324 
z"/>
<path fill="#000000" opacity="1.000000" stroke="none" 
	d="
M1609.031006,763.006470 
	C1594.508057,752.680725 1584.614746,739.339661 1580.033447,722.391418 
	C1573.891968,699.672058 1577.939575,678.568542 1591.867065,659.777161 
	C1607.453613,638.747253 1629.262817,629.429932 1654.895752,631.279785 
	C1675.074097,632.735962 1692.509644,641.174622 1705.498657,657.779358 
	C1714.782959,669.648010 1719.804321,682.715698 1721.116089,697.652283 
	C1724.362549,734.614563 1698.416260,768.066956 1661.917969,774.034119 
	C1642.955322,777.134338 1625.441772,773.723206 1609.031006,763.006470 
z"/>
<path fill="#000000" opacity="1.000000" stroke="none" 
	d="
M3167.969727,674.209717 
	C3171.819336,684.277649 3174.510986,694.354004 3173.850830,704.703308 
	C3172.688477,722.924622 3166.798096,739.268250 3153.741211,752.905151 
	C3137.114990,770.269775 3116.675293,777.268250 3093.536377,774.738831 
	C3069.397705,772.100159 3050.720703,759.768921 3038.523193,738.168274 
	C3032.319336,727.181763 3029.133301,715.240112 3029.418457,703.051819 
	C3029.834473,685.258240 3035.497070,669.139587 3047.801514,655.234375 
	C3058.651367,642.973145 3071.934082,635.715637 3087.309326,632.499512 
	C3108.177490,628.134583 3127.553711,632.742371 3144.897949,645.383240 
	C3155.110840,652.826660 3162.295166,662.686829 3167.969727,674.209717 
z"/>
<path fill="#000000" opacity="1.000000" stroke="none" 
	d="
M2239.312988,268.306091 
	C2235.108398,275.880280 2231.960449,283.758026 2226.972656,290.214691 
	C2215.307373,305.315430 2199.340820,314.341125 2180.552734,316.729187 
	C2164.709473,318.743011 2149.296143,316.074677 2135.053223,307.670044 
	C2120.151611,298.876678 2109.831787,286.374603 2103.409668,270.668854 
	C2097.919678,257.242737 2097.830322,243.219193 2100.419678,229.020279 
	C2102.827637,215.816666 2109.618408,204.830734 2118.412354,195.410339 
	C2128.939941,184.132797 2141.975586,176.466415 2157.648682,173.963791 
	C2178.394043,170.651245 2197.592773,174.287506 2214.335205,187.200363 
	C2229.049072,198.548737 2238.817627,213.330566 2242.002441,231.978531 
	C2244.084229,244.166870 2243.554932,256.188232 2239.312988,268.306091 
z"/>
<path fill="#000000" opacity="1.000000" stroke="none" 
	d="
M1446.210327,193.725342 
	C1456.905151,205.318375 1463.281128,218.421097 1466.203247,233.740616 
	C1470.434204,255.921539 1463.352295,275.028992 1450.280884,291.623505 
	C1440.151978,304.482574 1425.748169,312.815491 1409.239746,315.910583 
	C1387.432739,319.999084 1367.280518,315.405853 1350.088745,301.339600 
	C1335.849121,289.688812 1326.680542,274.782288 1323.839600,255.998276 
	C1320.848022,236.218536 1325.062866,218.034149 1336.598022,202.499893 
	C1347.621216,187.654968 1362.511353,177.094971 1381.645142,173.947327 
	C1398.417480,171.188171 1414.440552,173.311066 1429.356567,181.291931 
	C1435.346558,184.496887 1440.448486,189.361664 1446.210327,193.725342 
z"/>
</svg>