<svg height="56" viewBox="0 0 21 56" width="21" xmlns="http://www.w3.org/2000/svg"><path d="m0 0h21v56h-21z" fill="none"/><path d="m12.0697 37.75h.625v-7.3271c3.8163-1.0432 6.625-4.5258 6.625-8.6729 0-4.9706-4.0294-9-9-9s-9 4.0294-9 9c0 4.1471 2.8088 7.6297 6.625 8.6729v7.3271h.625v13.75h-6.25v.5h16v-.5h-6.25zm-9.75-16c0-4.4113 3.5888-8 8-8s8 3.5887 8 8-3.5887 8-8 8-8-3.5888-8-8zm8 9c.4688 0 .9256-.0468 1.375-.1158v6.1158h-2.75v-6.1159c.4495.0691.9062.1159 1.375.1159zm-.75 20.75v-13.75h1.5v13.75zm7.5-29.75c0-3.7279-3.022-6.75-6.75-6.75s-6.75 3.0221-6.75 6.75 3.0221 6.75 6.75 6.75 6.75-3.0221 6.75-6.75zm-13.25 0c0-3.5841 2.9159-6.5 6.5-6.5s6.5 2.9159 6.5 6.5-2.9159 6.5-6.5 6.5-6.5-2.9159-6.5-6.5z"/></svg>